<?xml version="1.0" encoding="utf-8"?>
<svg id="Layer_1" data-name="Layer 1" viewBox="0 0 1170.33 430" xmlns="http://www.w3.org/2000/svg">
  <defs>
    <style>.cls-1{fill:#fff;}.cls-2{fill:#e02873;}.cls-3{fill:#2bcfe0;}</style>
  </defs>
  <path class="cls-1" d="M30.71,33.1H58.06L120,192.78,180.34,33.1h24.53l-73.2,185.83H106.73Z"/>
  <path class="cls-1" d="M247.1,33.1h24.14V218.93H247.1Z"/>
  <path class="cls-1" d="M318.29,204.45,429.71,54.82H323.92V33.1H463.09V47.58l-111,149.63H467.92v21.72H318.29Z"/>
  <path class="cls-1" d="M920.81,183.93Q906.72,205.26,886,214.5t-45.65,9.25q-21.33,0-38.62-7.24A86.85,86.85,0,0,1,772,196.2a89.33,89.33,0,0,1-19.11-31,113.3,113.3,0,0,1-6.63-39.62A106,106,0,0,1,753.09,87a92.09,92.09,0,0,1,19.3-30.77,90.65,90.65,0,0,1,29.36-20.51,91.84,91.84,0,0,1,37.41-7.45q21.32,0,37.61,7.45a82.48,82.48,0,0,1,27.35,19.7,83.7,83.7,0,0,1,16.69,28,93.53,93.53,0,0,1,5.63,31.77v16.9H770.38q0,7.63,3,19.5a68.74,68.74,0,0,0,11.06,23.13A69.92,69.92,0,0,0,806,194q13.47,8.06,34.79,8a77.58,77.58,0,0,0,35.8-8.85q17.28-8.84,26.54-24.13Zm-18.5-73.6a54.89,54.89,0,0,0-5-23.33A62.5,62.5,0,0,0,883.6,67.89a64.78,64.78,0,0,0-20.51-13.07A66,66,0,0,0,838,50q-19.71,0-32.78,8t-20.71,18.5A73.51,73.51,0,0,0,773.6,96.85c-2.15,6.58-3.22,11.06-3.22,13.48Z"/>
  <path class="cls-1" d="M980.34,85.39q0-5.22-.41-12.67t-.6-15.08c-.14-5.09-.34-9.86-.6-14.28s-.4-7.85-.4-10.26h24.13q.39,10.47.6,20.11t1,12.47h1.21q7.23-15.29,24.13-26.34t39.42-11.07q21.7,0,35.39,6.84A57.18,57.18,0,0,1,1125.74,53a67.35,67.35,0,0,1,10.86,25.54,145.66,145.66,0,0,1,3,29.77V218.93h-24.13V109.52a118.14,118.14,0,0,0-2-21.92,58.1,58.1,0,0,0-7-19.1A36.88,36.88,0,0,0,1092.36,55q-9.06-5-23.53-5a68.64,68.64,0,0,0-25.14,4.63,54.16,54.16,0,0,0-20.52,14.08q-8.65,9.45-13.67,23.73t-5,33.58v92.92H980.34Z"/>
  <path class="cls-2" d="M547.09,105.76A11.24,11.24,0,1,0,557.45,93.7,11.24,11.24,0,0,0,547.09,105.76Z"/>
  <circle class="cls-2" cx="592.54" cy="82.51" r="13.93" transform="translate(-4.54 45.01) rotate(-4.33)"/>
  <path class="cls-1" d="M596.19,121.67a8.46,8.46,0,1,0-11.94.91A8.46,8.46,0,0,0,596.19,121.67Z"/>
  <circle class="cls-3" cx="562.93" cy="161.07" r="9.92"/>
  <circle class="cls-1" cx="655.17" cy="101.51" r="6.62"/>
  <circle class="cls-3" cx="648.75" cy="139.95" r="8.47" transform="translate(-8.72 49.42) rotate(-4.33)"/>
  <path class="cls-2" d="M621.57,137.85a17.53,17.53,0,1,0,1.87,24.72A17.54,17.54,0,0,0,621.57,137.85Z"/>
  <path class="cls-1" d="M673.45,33.1V64.47h-.81a74,74,0,0,0-28.35-26.54q-17.91-9.66-42-9.66a98.36,98.36,0,0,0-38.62,7.65,103.45,103.45,0,0,0-31.57,20.51A96.2,96.2,0,0,0,510.75,86.6a91.23,91.23,0,0,0,0,74,98.29,98.29,0,0,0,52.89,50.88,100.41,100.41,0,0,0,38.62,7.45q24.12,0,42-9.66a74,74,0,0,0,28.35-26.54h.81v25.74q0,5.24-.4,13.67a100,100,0,0,1-2.62,17.9A89.48,89.48,0,0,1,663.59,259a60.62,60.62,0,0,1-12.87,17.29,61.74,61.74,0,0,1-20.91,12.67q-12.67,4.83-31.17,4.83a101.27,101.27,0,0,1-41-8.45,76.85,76.85,0,0,1-32.18-26.54l-18.9,17.69a86.65,86.65,0,0,0,17.09,16.49,105.48,105.48,0,0,0,21.92,12.27,131.27,131.27,0,0,0,25.54,7.64,144.66,144.66,0,0,0,27.56,2.62,140.35,140.35,0,0,0,31.37-4,83.74,83.74,0,0,0,32.38-15.69q15.08-11.67,25.14-33t10.05-55.91V33.1Zm-5,119.26a74.37,74.37,0,0,1-15.69,23.33,73.53,73.53,0,0,1-20,14.13,8.45,8.45,0,1,0-13.44,3.51,9,9,0,0,0,1.59,1.06,73.05,73.05,0,0,1-20.28,2.82,71.55,71.55,0,0,1-28.76-5.84,73.1,73.1,0,0,1-39-39,70,70,0,0,1-4.41-14.16A11.24,11.24,0,1,0,527.34,117a70.91,70.91,0,0,1,5.53-22.14,73.1,73.1,0,0,1,39-39,73.74,73.74,0,0,1,57.52,0,76.55,76.55,0,0,1,14.09,7.92A8.46,8.46,0,1,0,655.88,74.9a75.11,75.11,0,0,1,12.54,19.94,73.85,73.85,0,0,1,0,57.52Z"/>
  <path class="cls-3" d="M618.53,103.8a9.92,9.92,0,1,0,14-1.06A9.92,9.92,0,0,0,618.53,103.8Z"/>
  <text style="fill: rgb(255, 255, 255); font-family: Tahoma; font-size: 109px; letter-spacing: 3.4px; word-spacing: -1.5px; white-space: pre; opacity: 0.9;" x="53.662" y="302.396" dx="9.087" dy="99.193">Post-processing Tool</text>
</svg>